<?xml version="1.0" encoding="UTF-8"?>
<svg id="Layer_2" data-name="Layer 2" xmlns="http://www.w3.org/2000/svg" viewBox="0 0 65.09 65.09">
  <defs>
    <style>
      .cls-1 {
        fill: #333;
      }

      .cls-2 {
        fill: #fff;
      }

      .cls-3 {
        fill: #8dc63f;
      }
    </style>
  </defs>
  <g id="Layer_1-2" data-name="Layer 1">
    <rect class="cls-2" x="7.4" y="8.13" width="50.29" height="48.83" rx="6.03" ry="6.03" transform="translate(32.55 -13.48) rotate(45)"/>
    <g>
      <path class="cls-1" d="M26.89,49.79c-.56,0-1.14-.11-1.69-.35-1.61-.68-2.6-2.19-2.6-3.93,0-.8.65-1.45,1.45-1.45s1.45.65,1.45,1.45c0,.84.64,1.18.83,1.26.2.08.88.31,1.49-.28l13.39-12.97c.27-.26.42-.61.42-.98s-.15-.72-.42-.98l-13.39-12.97c-.6-.59-1.29-.36-1.49-.28-.2.08-.84.42-.84,1.26s-.65,1.45-1.45,1.45-1.45-.65-1.45-1.45c0-1.74,1-3.25,2.6-3.93,1.61-.68,3.38-.35,4.63.86l13.39,12.97c.84.81,1.3,1.9,1.3,3.06s-.46,2.25-1.3,3.07l-13.39,12.97c-.82.8-1.87,1.21-2.95,1.21Z"/>
      <path class="cls-3" d="M31.1,40.59c-.36,0-.73-.14-1.01-.41l-5.21-5.05c-.71-.69-1.1-1.6-1.1-2.59s.39-1.9,1.1-2.59l5.21-5.05c.58-.56,1.49-.54,2.05.03s.54,1.49-.03,2.05l-5.21,5.05c-.19.18-.22.4-.22.51s.03.33.22.51l5.21,5.05c.57.56.59,1.47.03,2.05-.28.29-.66.44-1.04.44Z"/>
    </g>
  </g>
</svg>